Coordinates
version=1
nRows=11
nColumns=33
inDegrees=yes

Units are S.I. units (second, meters, Newtons, ...)
Angles are in degrees.

endheader
time	ground_thorax_rot_x	ground_thorax_rot_y	ground_thorax_rot_z	ground_thorax_tx	ground_thorax_ty	ground_thorax_tz	clav_prot_r	clav_elev_r	scapula_abduction_r	scapula_elevation_r	scapula_upward_rot_r	scapula_winging_r	shoulder_elv_r	plane_of_elev_r	axial_rot_r	elbow_flexion_r	pro_sup_r	wrist_flex_r	wrist_dev_r	clav_prot_l	clav_elev_l	scapula_abduction_l	scapula_elevation_l	scapula_upward_rot_l	scapula_winging_l	shoulder_elv_l	plane_of_elev_l	axial_rot_l	elbow_flexion_l	pro_sup_l	wrist_flex_l	wrist_dev_l	
3.4100	-36.093362	-0.583870	3.304720	63.903837	758.509290	-33.485253	14.114698	-45.000000	44.999998	-45.000000	-4.842130	-2610.300811	-2451.367797	18.007404	-155.964909	1441.020438	-193.941578	10.666717	12.597600	15.758918	21.971943	-43.626649	-39.584383	-45.000000	-2810.523606	-1702.386008	20.190509	-180.000000	1787.281439	-85.787579	0.492430	-16.402566	
3.4200	-36.082037	-0.108117	2.938259	63.828656	758.160603	-33.397980	13.908385	-45.000000	44.999997	-45.000000	-4.276810	-2610.350189	-2451.326551	17.980591	-155.761073	1441.059871	-193.581834	10.739564	12.653446	16.010555	21.956785	-43.886184	-39.502006	-45.000000	-2810.452467	-1702.310686	20.240658	-180.000000	1787.260904	-85.446673	0.411235	-16.303023	
3.4300	-36.075614	0.363723	2.579206	63.715269	757.821080	-33.310545	13.788952	-45.000000	44.999994	-45.000000	-3.707623	-2610.411339	-2451.280504	17.952341	-155.535557	1441.088172	-193.261584	10.762706	12.788017	16.274158	21.930659	-44.143132	-39.417959	-45.000000	-2810.351726	-1702.239877	20.313001	-180.000000	1787.230760	-84.853027	0.343467	-16.226387	
3.4400	-36.093579	0.798735	2.228276	63.522209	757.502419	-33.223329	13.630619	-45.000000	44.999989	-45.000000	-3.231327	-2610.442460	-2451.262053	17.928996	-155.378332	1441.121231	-193.109068	10.791437	12.874811	16.491983	21.960150	-44.347571	-39.403688	-45.000000	-2810.308633	-1702.181864	20.360742	-180.000000	1787.211585	-83.782577	0.279764	-16.114014	
3.4500	-36.130898	1.211177	1.877912	63.240597	757.204413	-33.136203	13.461219	-45.000000	44.999981	-45.000000	-2.814900	-2610.450978	-2451.262562	17.905072	-155.251034	1441.154597	-193.092013	10.817313	12.939261	16.682273	22.022027	-44.514313	-39.438166	-45.000000	-2810.300626	-1702.132923	20.394035	-180.000000	1787.204223	-82.001395	0.231909	-15.967785	
3.4600	-36.186243	1.611389	1.519641	62.856225	756.928656	-33.049453	13.303656	-45.000000	44.999966	-45.000000	-2.437259	-2610.444766	-2451.280099	17.884687	-155.146869	1441.190597	-193.202213	10.826387	13.004989	16.851700	22.119546	-44.647696	-39.516908	-45.000000	-2810.318689	-1702.093450	20.422019	-180.000000	1787.224889	-79.037386	0.228105	-15.780176	
3.4700	-36.255774	2.011686	1.141150	62.363773	756.674084	-32.963770	13.122339	-45.000000	44.999940	-45.000000	-2.076679	-2610.420273	-2451.309895	17.858143	-155.054116	1441.225192	-193.408154	10.844124	13.041569	17.007872	22.243323	-44.751041	-39.634674	-45.000000	-2810.370558	-1702.061720	20.438117	-180.000000	1787.295942	-74.362359	0.293560	-15.522090	
3.4800	-36.335457	2.440367	0.717956	61.762293	756.439211	-32.880342	12.951809	-45.000000	44.999892	-45.000000	-1.678160	-2610.391770	-2451.346334	17.829869	-154.959984	1441.253786	-193.673287	10.848002	13.093813	17.172901	22.403345	-44.835173	-39.787707	-45.000000	-2810.444429	-1702.048328	20.460987	-180.000000	1787.489760	-66.378500	0.529660	-15.161817	
3.4900	-36.424572	2.907265	0.237752	61.050824	756.223970	-32.800941	12.739262	-45.000000	44.999806	-45.000000	-1.230861	-2610.352994	-2451.391822	17.795099	-154.875700	1441.275520	-193.976190	10.865427	13.123129	17.348611	22.597222	-44.897837	-39.985370	-45.000000	-2810.561546	-1702.057052	20.480306	-180.000000	1787.857124	-54.194007	0.991569	-14.655850	
3.5000	-36.527493	3.474196	-0.374153	60.228894	756.029795	-32.727596	12.493733	-45.000000	44.999653	-45.000000	-0.642171	-2610.294672	-2451.453407	17.747166	-154.785760	1441.278823	-194.326419	10.884131	13.154285	17.573928	22.880494	-44.944510	-40.265626	-45.000000	-2810.744800	-1702.145318	20.515953	-180.000000	1788.753156	-30.879625	2.104863	-13.804510	
3.5100	-36.638901	4.101459	-1.066778	59.295551	755.859781	-32.662341	12.189988	-45.000000	44.999377	-45.000000	0.024453	-2610.230023	-2451.527089	17.696932	-154.725116	1441.269676	-194.684794	10.906506	13.177645	17.823607	23.189378	-44.971890	-40.604297	-45.000000	-2810.996794	-1702.295163	20.536551	-180.000000	1790.084893	0.970259	3.743203	-12.701440	
